<svg xmlns="http://www.w3.org/2000/svg" width="299" height="200" viewBox="0 0 299 200" fill="none">
<path d="M149.986 77.9763C147.282 68.9597 146.829 59.7278 148.466 50.4618C152.511 27.5615 164.41 12.211 183.79 4.12421C189.037 1.93482 194.402 0.660794 200.478 0.595337C202.397 1.38554 203.805 1.93618 205.147 2.46085C205.614 6.13282 205.609 6.12019 203.107 7.30095C202.479 7.59744 201.891 8.00372 201.285 8.35957C198.376 8.82179 195.414 9.03529 192.565 9.7873C176.241 14.095 164.357 24.5084 157.917 42.3047C154.359 52.1365 154.308 62.2506 155.712 73.0686C154.941 77.1192 152.598 77.766 149.986 77.9763Z" fill="currentColor"/>
<path d="M249.132 191.129C252.323 190.291 255.569 189.66 258.695 188.583C281.034 180.886 293.961 158.329 291.261 132.499C291.151 131.447 291.059 130.392 291.124 128.799C291.099 127.583 290.909 126.906 290.718 126.229C290.628 125.988 290.537 125.747 290.614 125.002C290.906 122.162 290.742 119.68 293.061 118.452C294.094 118.923 295.034 119.352 295.974 119.781C295.974 119.781 295.911 119.764 295.936 119.935C296.026 120.373 296.159 120.586 296.36 120.744C296.36 120.744 296.474 120.885 296.466 120.982C296.458 121.079 296.453 121.089 296.453 121.089C298.96 128.442 299.31 136.104 298.797 143.828C297.644 161.184 291.023 175.481 278.883 186.113C270.189 193.727 260.195 198.317 248.719 198.809C247.428 195.849 247.856 193.434 249.132 191.129Z" fill="currentColor"/>
<path d="M142.505 8.05612C130.038 8.11734 117.572 8.20798 105.105 8.23198C90.872 8.25937 76.6387 8.22744 62.0728 7.93772C61.7401 7.65415 61.7358 7.25528 62.0687 7.24586C66.6732 7.21973 70.9448 7.20303 75.5484 7.19648C87.4278 6.8405 98.9722 7.61257 110.539 6.57006C118.99 5.80833 127.535 6.43584 136.038 6.38131C137.237 6.37363 138.666 6.96356 139.639 5.18358C138.634 2.79888 136.956 1.65285 134.669 1.54195C129.143 1.27393 123.617 0.823304 118.09 0.780907C104.273 0.674901 90.4547 0.754888 76.3041 0.752621C66.2603 0.752138 56.5495 0.759275 46.5076 0.756921C32.7979 0.724311 19.4192 0.699247 6.04049 0.682174C5.10268 0.680972 4.14471 0.611689 3.23206 0.801214C2.07549 1.0414 0.891489 1.43019 0.790871 3.56476C0.7841 15.3109 0.801299 26.6804 0.809606 38.3271C0.805301 38.9743 0.809866 39.3443 0.793121 40.0746C0.733586 41.6391 0.695338 42.8434 0.65709 44.0476C0.428749 43.1878 0.0024828 42.3282 0.00176895 41.4681C-0.00909118 28.4793 0.0317315 15.4904 0.0782865 2.50154C0.081099 1.71738 0.233983 0.933932 0.332956 0C54.1322 0 107.81 0 162.266 0C156.144 6.51984 150.159 12.0651 145.905 19.4127C141.634 26.7875 138.427 34.7342 136.897 43.9929C124.556 43.9929 112.311 43.9929 99.5401 43.8647C98.874 43.7055 98.7346 43.6744 98.8352 43.4496C99.6512 43.153 100.226 42.975 100.804 42.9584C110.661 42.674 120.518 42.408 130.375 42.1416C134.049 42.0424 134.859 41.0439 134.944 36.0634C133.975 35.9359 132.971 35.8039 131.973 35.352C132.144 33.9775 132.309 32.9229 132.475 31.8682C132.494 31.5729 132.514 31.2776 132.623 30.7777C132.713 30.5731 132.712 30.5739 132.712 30.5739C132.984 29.6873 133.255 28.8008 133.771 27.5299C134.102 26.9175 134.161 26.68 134.19 26.4328C134.19 26.4328 134.243 26.1163 134.432 25.8916C134.713 25.3836 134.805 25.1002 134.897 24.8168C134.897 24.8168 134.954 24.4935 135.141 24.2745C135.42 23.7928 135.512 23.53 135.605 23.2672C135.643 23.1365 135.682 23.0059 135.902 22.6615C136.166 22.2874 136.224 22.1164 136.258 21.9348C138.432 18.1876 140.606 14.4405 143.107 10.3345C144.198 8.65365 143.81 8.06364 142.505 8.05612Z" fill="currentColor"/>
<path d="M202.229 43.165C200.782 43.7065 199.287 44.1216 197.895 44.8096C187.866 49.766 186.749 62.3008 191.147 70.9878C192.632 73.923 195.268 75.9074 198.211 77.4139C196.553 78.6161 195.135 77.632 193.659 76.8578C191.117 75.5257 188.476 74.7198 185.641 75.1708C185.641 75.1708 185.689 75.0446 185.687 74.851C185.476 74.4714 185.266 74.2855 185.056 74.0995C179.846 67.6028 180.791 52.8601 185.658 45.7528C188.73 41.2675 192.413 37.9166 197.436 36.1133C197.692 36.0286 197.677 36.0555 197.677 36.0555C197.838 36.0053 197.999 35.9551 198.485 36.0264C198.966 36.0152 199.122 35.8827 199.279 35.7501C199.662 35.5849 200.046 35.4198 200.806 35.4586C201.985 35.4961 202.786 35.3295 203.587 35.163C209.024 35.1108 214.46 35.0585 220.445 35.3006C224.368 35.7239 227.745 35.8271 231.119 36.0001C231.956 36.043 232.784 36.312 234.321 36.6169C231.372 38.5018 229.136 39.9456 226.883 41.3537C226.59 41.5369 226.213 41.5763 225.869 41.6139C223.205 41.9053 220.544 42.334 217.875 42.4239C213.783 42.5616 209.684 42.4134 205.59 42.496C204.466 42.5186 203.349 42.9313 202.229 43.165Z" fill="currentColor"/>
<path d="M202.548 43.6867C203.405 43.3672 204.53 42.9575 205.661 42.935C209.783 42.853 213.91 43.0002 218.03 42.8634C220.717 42.7742 223.396 42.3486 226.078 42.0593C226.424 42.022 226.804 41.9828 227.099 41.801C229.367 40.4031 231.618 38.9697 234.587 37.0984C233.04 36.7958 232.206 36.5287 231.363 36.4862C227.966 36.3144 224.567 36.2119 220.945 35.8662C225.79 35.5724 230.859 35.3922 235.926 35.4646C238.413 35.5001 240.239 35.1453 241.798 32.3824C244.238 28.0594 248.848 26.4696 253.043 27.884C257.411 29.3567 259.974 32.8521 260.838 37.831C261.704 42.8282 258.698 48.6279 254.304 50.8111C250.154 52.8731 244.807 51.6546 242.231 47.2382C240.418 44.1295 238.28 43.7338 235.427 43.7615C224.559 43.8667 213.689 43.7856 202.548 43.6867ZM252.845 35.9487C252.098 35.6041 251.369 35.0348 250.601 34.9558C248.022 34.6907 246.05 36.8924 246.136 39.7656C246.218 42.5446 248.017 44.4711 250.416 44.3511C252.922 44.2258 254.695 41.7985 254.274 38.8735C254.15 38.01 253.608 37.2234 252.845 35.9487Z" fill="currentColor"/>
<path d="M64.5504 57.9531C64.615 60.1441 64.6795 62.3351 64.5555 65.0785C64.4575 66.5481 64.5481 67.4651 64.6387 68.3822C64.6735 69.2607 64.7083 70.1392 64.5548 71.5348C64.4575 72.9732 64.5485 73.8946 64.6395 74.8159C64.6765 77.8028 64.7136 80.7897 64.5527 84.3848C64.4521 86.6911 64.5494 88.3894 64.6468 90.0876C64.6826 94.6665 64.7183 99.2455 64.5795 104.328C64.486 105.279 64.5672 105.725 64.6483 106.171C64.6783 107.015 64.7083 107.858 64.4377 109.149C63.9179 110.997 63.5162 112.397 63.5085 113.799C63.4486 124.634 63.4657 135.469 63.4568 146.304C63.456 147.24 63.4431 148.176 63.4301 149.113C63.4075 150.74 62.5176 151.58 61.2041 151.762C59.7817 151.959 58.9099 150.91 58.5868 149.547C58.3175 148.41 58.3726 147.164 58.3705 145.967C58.3504 134.463 58.3799 122.959 58.3039 111.456C58.2939 109.946 57.7705 108.439 57.485 106.931C57.4237 94.2996 57.3548 81.6678 57.3059 69.036C57.2914 65.3126 57.3334 61.5889 57.6579 57.7382C58.1026 59.1799 58.3173 60.7463 58.3579 62.3183C58.4301 65.1099 58.3109 67.9107 58.4628 70.6947C58.5051 71.4718 59.1575 72.765 59.6367 72.8286C60.4111 72.9315 61.642 72.4653 62.0203 71.7854C62.7391 70.4937 63.2305 68.9103 63.3809 67.3946C63.6027 65.1599 63.3402 62.8695 63.4969 60.6211C63.5605 59.707 64.1825 58.841 64.5504 57.9531Z" fill="currentColor"/>
<path d="M248.505 191.071C247.536 193.513 247.109 196.018 248.084 199.038C246.606 199.583 245.112 199.986 243.618 199.989C223.689 200.022 203.76 200 183.459 199.638C182.296 197.523 182.387 196.059 184.189 195.344C187.141 194.171 189.891 192.436 193.229 192.557C199.921 192.8 206.624 192.663 213.321 192.58C214.551 192.565 215.776 192.065 217.004 191.788C222.38 191.708 227.757 191.667 233.132 191.537C238.156 191.414 243.178 191.197 248.505 191.071Z" fill="currentColor"/>
<path d="M98.1418 103.571C98.2244 106.359 98.3721 109.145 98.3781 111.933C98.4015 122.851 98.3801 133.77 98.3756 144.689C98.375 146.006 98.3756 147.324 98.3756 148.638C101.867 150.844 104.457 153.562 105.318 157.967C106.326 163.12 103.631 169.325 99.2644 171.55C94.6835 173.884 89.0747 172.284 86.2591 167.838C82.5052 161.912 83.4045 154.34 88.6826 150.241C90.4466 148.871 90.8773 147.439 90.8684 145.316C90.84 138.527 90.8961 131.737 91.2483 124.679C91.7239 124.438 91.8706 124.466 92.0251 124.86C92.04 132.29 92.063 139.353 92.0423 146.417C92.0375 148.039 92.3245 149.54 93.9439 149.668C95.5249 149.793 96.1777 148.36 96.3053 146.788C96.6056 143.092 96.9925 139.389 97.0294 135.684C97.1356 125.024 97.0858 114.361 97.2713 103.675C97.6752 103.6 97.9074 103.573 98.1418 103.571ZM98.6889 161.287C98.5207 160.269 98.5578 159.127 98.1447 158.257C97.0364 155.922 94.5902 155.229 92.6729 156.512C90.784 157.776 90.1091 160.674 91.2105 162.792C92.2953 164.877 94.8965 165.638 96.7856 164.228C97.5168 163.682 97.96 162.645 98.6889 161.287Z" fill="currentColor"/>
<path d="M132.068 35.7143C133.068 35.8449 134.067 35.9755 135.032 36.1016C134.948 41.0287 134.142 42.0164 130.482 42.1146C120.665 42.3781 110.847 42.6413 101.03 42.9226C100.454 42.9391 99.8822 43.1152 98.9884 43.631C98.6173 44.1939 98.5661 44.3428 98.2779 44.6331C97.8401 45.5056 97.4768 46.2327 97.4626 46.9684C97.2002 60.6164 96.9795 74.2655 96.5215 87.9405C95.7287 88.2312 95.1644 88.4956 94.3283 88.6905C92.2781 87.925 92.4913 86.1984 92.4901 84.6197C92.4789 69.957 92.4728 55.2942 92.4966 40.6315C92.4983 39.6259 92.7516 38.6208 92.9334 37.2799C94.3311 37.2799 95.484 37.2794 96.6371 37.28C100.972 37.2821 105.308 37.3326 109.642 37.2539C110.767 37.2335 111.886 36.8092 113.334 36.5551C115.389 36.5363 117.122 36.6032 118.848 36.5117C121.12 36.3912 123.386 36.146 125.655 35.9545C126.643 35.9136 127.63 35.8728 128.895 36.0393C129.172 36.2467 129.208 36.5568 129.322 36.7056C129.833 36.7558 130.228 36.6572 130.81 36.4648C131.353 36.1521 131.71 35.9332 132.068 35.7143Z" fill="currentColor"/>
<path d="M275.398 8.1982C273.897 7.3507 272.604 6.75474 271.055 6.04031C271.055 4.33277 271.055 2.39097 271.055 0.453114C278.346 -1.38402 282.939 2.43439 283.343 10.6512C283.408 11.9819 283.412 13.3169 283.43 14.6501C283.507 20.234 283.745 20.6265 288.542 22.6339C288.625 24.4231 288.715 26.3674 288.787 27.9119C287.061 29.3436 285.194 30.1909 284.408 31.7303C283.526 33.4568 283.556 35.7995 283.315 37.8922C283.132 39.4736 283.256 41.1013 283.052 42.6773C282.404 47.6864 279.787 50.5341 275.298 51.1101C274.015 51.2748 272.702 51.1353 270.978 51.1353C270.854 49.1558 270.736 47.2497 270.632 45.574C271.08 45.1451 271.236 44.875 271.438 44.8202C275.968 43.5924 276.056 43.4753 276.321 38.1799C276.401 36.5825 276.493 34.9859 276.587 33.3894C276.759 30.4395 277.961 28.0517 279.789 26.1751C278.766 23.9921 277.477 22.0242 276.916 19.8239C276.374 17.6982 276.655 15.3239 276.434 13.076C276.282 11.5188 275.891 9.99076 275.398 8.1982Z" fill="currentColor"/>
<path d="M64.6544 57.5327C64.2225 58.7056 63.6127 59.5661 63.5502 60.4744C63.3966 62.7086 63.654 64.9846 63.4365 67.2052C63.2891 68.7113 62.8072 70.2847 62.1025 71.5682C61.7316 72.2438 60.5247 72.7071 59.7654 72.6049C59.2955 72.5417 58.6558 71.2567 58.6143 70.4845C58.4654 67.718 58.5822 64.9349 58.5115 62.1609C58.4717 60.5989 58.2611 59.0424 57.9139 57.2436C57.6557 53.3433 57.6111 49.6826 57.6434 45.3799C57.2246 44.3888 56.729 44.0398 56.2333 43.6908C55.57 43.722 54.9067 43.7533 53.6868 43.6413C52.4925 43.5662 51.8548 43.6344 51.2171 43.7026C45.7098 43.706 40.2024 43.6989 34.6951 43.7151C25.1995 43.743 15.7037 43.7854 5.65518 43.6988C4.32128 43.8013 3.54023 44.0267 2.75915 44.2521C2.29056 44.2236 1.82196 44.1952 1.19845 43.9636C1.08174 42.5767 1.11995 41.3929 1.35349 40.0656C2.04954 42.0696 3.29125 42.8323 5.2267 42.6954C9.90901 42.3643 14.5966 42.1111 19.2847 41.9084C21.6366 41.8066 23.9949 41.9098 26.3497 41.8739C30.2391 41.8146 30.674 41.0976 29.6869 36.7276C40.4869 36.4695 51.0362 36.389 61.5857 36.3096C61.7028 36.3087 61.8201 36.3204 61.9373 36.3258C63.3405 36.3897 64.0498 37.1917 64.1544 38.7919C64.2389 40.0842 64.4526 41.3658 64.6089 42.6521C64.6486 45.618 64.6883 48.5838 64.5496 52.109C64.4635 53.5924 64.5556 54.5165 64.6478 55.4405C64.6737 56.041 64.6997 56.6415 64.6544 57.5327Z" fill="currentColor"/>
<path d="M57.5144 107.143C57.9032 108.348 58.4022 109.85 58.4117 111.357C58.4843 122.828 58.4561 134.301 58.4753 145.773C58.4773 146.967 58.4248 148.21 58.6815 149.343C58.9896 150.702 59.8209 151.749 61.1771 151.552C62.4295 151.371 63.278 150.533 63.2996 148.91C63.312 147.977 63.3242 147.043 63.325 146.109C63.3335 135.304 63.3173 124.498 63.3743 113.694C63.3817 112.295 63.7647 110.899 64.2099 109.367C64.5049 115.697 64.5635 122.163 64.4426 129.166C64.3482 130.359 64.4336 131.015 64.5189 131.671C64.5526 144.256 64.5862 156.841 64.3515 169.873C63.0115 171.56 62.9639 172.613 64.4921 173.382C64.5305 173.982 64.569 174.582 64.3053 175.596C63.8064 176.322 63.4426 176.629 63.4383 176.944C63.3844 180.897 63.3468 184.852 63.4144 188.804C63.4224 189.275 64.076 189.732 64.4303 190.195C64.4835 190.37 64.5368 190.545 64.714 191.246C66.0437 192.338 67.2495 192.905 68.6507 193.563C68.1548 195.54 68.446 197.928 66.0554 198.119C63.704 198.306 61.3329 198.16 58.6827 198.16C58.6039 196.091 58.6388 194.519 58.4559 192.982C58.3078 191.738 57.8974 190.537 57.6034 189.316C57.5597 186.671 57.5159 184.025 57.7305 180.848C58.6353 179.208 58.6807 178.217 57.5751 177.45C57.487 176.529 57.3229 175.608 57.3221 174.687C57.304 152.804 57.3027 130.92 57.3037 109.036C57.3037 108.505 57.3651 107.973 57.5144 107.143Z" fill="currentColor"/>
<path d="M138.96 162.586C134.435 175.219 130 187.56 125.529 200C123.06 200 120.763 200 118.011 200C118.678 197.87 119.192 196.004 119.838 194.199C122.58 186.534 125.364 178.888 128.127 171.234C130.624 164.319 133.131 157.41 135.601 150.484C137.252 145.851 137.226 145.828 141.713 145.834C142.502 145.835 143.291 145.971 144.677 146.101C142.718 151.737 140.883 157.016 138.96 162.586Z" fill="currentColor"/>
<path d="M184.22 164.441C181.283 164.441 178.346 164.441 175.546 164.441C174.821 165.69 174.339 166.581 173.804 167.432C170.273 173.053 163.12 174.326 158.523 170.163C153.274 165.408 152.895 157.493 157.662 152.174C161.92 147.422 169.036 147.745 173.099 152.882C173.41 153.274 173.781 153.658 173.957 154.125C174.793 156.34 176.402 156.579 178.304 156.564C185.024 156.508 191.745 156.572 198.577 156.884C197.412 157.31 196.137 157.439 194.862 157.577C193.002 157.778 191.116 157.837 189.287 158.222C185.881 158.94 184.723 160.466 184.22 164.441ZM163.842 164.962C164.755 164.938 165.742 165.153 166.567 164.841C168.417 164.144 169.428 161.88 169.055 159.782C168.697 157.769 167.158 156.195 165.42 156.063C163.542 155.921 161.638 157.379 161.184 159.478C160.681 161.806 161.473 163.571 163.842 164.962Z" fill="currentColor"/>
<path d="M264.958 136.729C264.884 139.201 264.809 141.674 264.527 144.511C264.148 145.107 264.174 145.314 264.397 145.497C264.324 145.945 264.25 146.392 263.857 147.181C263.446 148.032 263.354 148.542 263.261 149.052C263.261 149.052 263.255 149.356 262.969 149.598C262.403 150.604 262.125 151.368 261.846 152.132C261.846 152.132 261.818 152.071 261.652 152.178C261.343 152.732 261.199 153.18 261.055 153.628C261.055 153.628 261.024 153.598 260.874 153.726C260.618 154.115 260.511 154.376 260.404 154.638C260.404 154.638 260.322 154.97 260.013 155.119C259.49 155.603 259.275 155.939 259.061 156.275C259.061 156.275 259.032 156.18 258.881 156.241C258.625 156.567 258.52 156.834 258.415 157.1C258.415 157.1 258.344 156.991 258.195 157.055C257.922 157.375 257.798 157.631 257.674 157.887C257.674 157.887 257.65 157.808 257.487 157.861C257.201 158.169 257.078 158.425 256.954 158.682C256.954 158.682 256.929 158.606 256.768 158.651C256.465 158.937 256.322 159.178 256.18 159.418C256.18 159.418 256.166 159.341 256.017 159.399C255.714 159.675 255.561 159.893 255.407 160.111C255.407 160.111 255.383 160.038 255.184 160.07C254.667 160.411 254.35 160.721 254.033 161.031C254.033 161.031 254.026 160.942 253.887 160.988C253.584 161.227 253.421 161.419 253.257 161.612C253.257 161.612 253.108 161.798 252.833 161.783C252.308 161.982 252.058 162.194 251.808 162.407C251.512 162.609 251.215 162.811 250.573 162.958C250.059 163.035 249.889 163.166 249.72 163.297C249.72 163.297 249.563 163.453 249.259 163.441C248.742 163.602 248.528 163.776 248.314 163.95C243.393 165.564 238.361 164.59 232.938 164.583C232.116 164.471 231.735 164.562 231.354 164.653C230.821 164.695 230.289 164.737 229.422 164.464C228.257 163.579 227.425 163.011 226.378 162.295C227.962 160.602 228.432 158.001 230.887 157.924C234.472 157.812 238.061 157.78 241.642 157.572C242.468 157.523 243.268 156.897 244.08 156.537C244.401 156.426 244.722 156.315 245.469 156.382C246.933 156.08 247.971 155.6 249.009 155.12C249.009 155.12 249.138 154.961 249.442 154.983C249.966 154.801 250.185 154.597 250.405 154.393C250.405 154.393 250.417 154.397 250.632 154.38C251.16 154.065 251.473 153.769 251.786 153.472C251.786 153.472 251.787 153.541 252.013 153.524C255 152.339 256.135 149.566 257.275 146.828C257.745 145.699 258.667 144.575 257.684 143.208C257.701 142.83 257.717 142.451 258.052 141.665C259.729 135.343 257.318 127.589 253.534 124.821C251.383 123.247 249.276 121.595 247.172 119.995C248.33 116.553 248.676 116.177 250.372 117.097C257.267 120.838 262.238 126.468 263.945 135.267C264.051 135.812 264.61 136.244 264.958 136.729Z" fill="currentColor"/>
<path d="M201.668 8.29423C201.949 7.86034 202.54 7.44786 203.172 7.14685C205.688 5.94811 205.693 5.96094 205.223 2.23303C203.874 1.70036 202.457 1.14133 200.846 0.393437C201.715 0.133792 202.778 0.0017134 203.841 0.00140348C220.702 -0.00356747 237.562 0.00482486 254.422 0.0240632C255.586 0.0253894 256.75 0.13632 258.15 0.208452C258.15 2.79017 258.15 5.15701 258.15 8.10606C248.778 8.47077 239.453 8.2216 230.136 8.28662C220.756 8.35208 211.376 8.34318 201.668 8.29423Z" fill="currentColor"/>
<path d="M216.732 191.897C215.765 192.286 214.539 192.767 213.309 192.782C206.608 192.862 199.901 192.994 193.206 192.76C189.867 192.643 187.115 194.313 184.161 195.442C182.359 196.131 182.267 197.54 183.108 199.504C179.168 199.848 175.18 199.973 171.191 199.987C162.731 200.016 154.27 199.987 145.81 199.982C144.673 199.981 143.537 199.982 141.841 199.982C142.699 197.28 143.335 195.192 144.027 193.13C144.497 191.73 145.589 191.748 146.68 191.751C149.852 191.759 153.025 191.727 156.197 191.723C175.468 191.701 194.738 191.68 214.008 191.667C214.829 191.666 215.65 191.737 216.732 191.897Z" fill="currentColor"/>
<path d="M243.966 156.023C243.473 156.509 242.671 157.167 241.843 157.217C238.251 157.437 234.652 157.47 231.056 157.588C228.595 157.669 228.124 160.402 226.534 162.181C227.585 162.933 228.419 163.53 229.325 164.388C228.697 164.73 227.996 164.881 227.296 164.881C213.276 164.871 199.256 164.844 184.96 164.73C185.187 160.373 186.347 158.734 189.757 157.964C191.589 157.55 193.477 157.486 195.34 157.27C196.616 157.123 197.893 156.984 199.386 156.605C200.761 156.235 201.919 155.988 203.077 155.984C216.599 155.94 230.122 155.933 243.966 156.023Z" fill="currentColor"/>
<path d="M57.39 189.881C57.7515 190.743 58.1717 191.971 58.3234 193.242C58.5107 194.812 58.475 196.417 58.5556 198.531C61.2697 198.531 63.698 198.681 66.106 198.489C68.5542 198.294 68.256 195.855 68.7639 193.835C67.3288 193.162 66.0941 192.584 64.764 191.75C73.3436 191.556 82.0183 191.628 90.6932 191.675C94.9149 191.698 99.1368 191.659 103.359 191.681C104.488 191.686 105.617 191.809 107.231 191.907C106.347 194.868 105.601 197.366 104.814 200C89.0362 200 73.4864 200 57.6522 200C57.0858 196.708 57.3764 193.472 57.39 189.881Z" fill="currentColor"/>
<path d="M210.865 113.998C212.273 113.903 213.682 113.73 215.09 113.725C223.95 113.693 232.809 113.671 241.668 113.716C243.546 113.725 245.424 114.027 247.37 114.503C245.62 115.21 243.777 115.504 241.991 116.037C240.222 116.564 238.93 117.729 238.779 120.539C240.052 120.633 241.186 120.592 242.268 120.84C242.972 121.001 243.6 121.583 244.263 121.977C231.931 122.036 219.598 122.095 206.926 121.781C206.357 120.664 206.143 119.912 205.894 119.175C204.879 116.176 205.264 115.564 208.135 115.126C209.072 114.982 209.956 114.387 210.865 113.998Z" fill="currentColor"/>
<path d="M220.865 78.5714C230.926 78.6315 240.99 78.5862 251.048 78.8291C253.43 78.8867 255.795 79.9124 258.15 80.8124C256.986 81.2135 255.83 81.2131 254.697 81.4009C253.688 81.5679 252.608 81.729 251.732 82.2712C249.861 83.4293 249.97 85.0702 251.837 86.286C252.299 86.5873 252.665 87.0899 253.076 87.5C242.785 87.2644 232.493 87.0289 221.789 86.4615C219.617 85.1225 218.947 83.8304 220.191 81.6403C220.663 80.808 220.654 79.6053 220.865 78.5714Z" fill="currentColor"/>
<path d="M210.492 113.512C209.904 113.999 209.02 114.597 208.083 114.741C205.212 115.181 204.826 115.795 205.841 118.805C206.091 119.544 206.304 120.299 206.552 121.324C203.591 121.512 200.612 121.423 197.333 121.246C197.034 121.158 197.05 121.136 197.05 121.136C188.123 120.201 179.954 116.794 172.478 111.045C172.937 110.354 173.342 110.068 173.673 109.697C175.464 107.696 177.378 106.961 179.641 108.77C180.11 109.145 180.713 109.543 181.237 109.515C181.629 109.494 181.993 108.805 182.37 108.414C182.76 108.519 183.151 108.623 183.725 109.023C183.909 109.319 184.191 109.473 184.191 109.473L184.479 109.293C188.234 110.351 191.944 111.794 195.756 112.371C200.517 113.091 205.362 113.099 210.492 113.512Z" fill="currentColor"/>
<path d="M220.336 78.3306C220.441 79.4465 220.45 80.6518 219.97 81.4859C218.706 83.6808 219.387 84.9757 221.272 86.219C214.356 86.3798 207.343 86.3067 200.039 86.1526C199.748 86.0716 199.776 86.0443 199.776 86.0443C193.723 84.8908 188.93 81.4968 185.528 75.2674C188.329 74.549 190.993 75.362 193.555 76.7062C195.044 77.4873 196.474 78.4802 198.386 77.373C204.377 78.7899 210.285 77.8947 216.137 78.2154C217.428 78.2861 218.723 78.242 220.336 78.3306Z" fill="currentColor"/>
<path d="M253.761 87.4185C253.068 86.9003 252.701 86.4142 252.236 86.1228C250.36 84.9471 250.252 83.3602 252.131 82.2403C253.01 81.716 254.096 81.5602 255.108 81.3987C256.247 81.2171 257.408 81.2175 258.787 80.9814C259.454 80.9042 259.894 80.9844 260.634 81.179C260.935 81.2936 260.916 81.3569 260.916 81.3569C268.833 83.9513 276.18 87.7001 281.979 94.8395C279.309 95.2068 277.28 96.3739 275.846 98.8095C273.062 96.9083 270.365 94.8204 267.472 93.1576C264.463 91.4279 261.266 90.109 257.884 88.368C257.448 87.981 257.277 87.9846 257.103 88.1363C256.672 88.0725 256.241 88.0086 255.514 87.846C255.217 87.7473 255.234 87.6927 255.234 87.6927C254.836 87.6418 254.439 87.591 253.761 87.4185Z" fill="currentColor"/>
<path d="M129.463 125.381C128.975 126.777 128.563 127.879 128.081 129.167C126.551 129.167 125.055 129.167 123.118 129.167C126.513 116.402 130.705 104.152 134.301 91.6666C136.08 91.6666 137.586 91.6666 139.571 91.6666C138.511 97.706 136.139 102.925 134.579 108.42C132.993 114.009 131.227 119.534 129.463 125.381Z" fill="currentColor"/>
<path d="M64.5817 42.2619C64.3277 41.2742 64.114 39.9993 64.0295 38.7138C63.9249 37.1221 63.2155 36.3243 61.8122 36.2607C61.695 36.2554 61.5777 36.2437 61.4605 36.2446C50.9101 36.3236 40.3597 36.4036 29.2338 36.6878C22.5518 36.8834 16.445 36.9108 10.339 36.8511C7.21955 36.8205 6.84872 36.4172 6.83031 33.0144C6.79185 25.9064 6.8077 18.7977 6.84859 11.6896C6.86852 8.229 7.23643 7.77054 10.2722 7.74805C15.6726 7.70805 21.0738 7.78819 26.4956 7.9968C26.5167 8.17551 26.5572 8.5332 26.5572 8.5332C21.8709 8.71337 17.1849 8.90347 12.4981 9.06707C11.2446 9.11084 9.98881 9.07371 8.86494 9.07371C8.52539 9.82449 8.2401 10.1634 8.23679 10.5058C8.16876 17.4926 8.06302 24.4807 8.12571 31.4668C8.15033 34.2075 8.61214 34.64 10.9685 35.0267C12.2402 35.2355 13.5491 35.2037 14.8413 35.205C30.2618 35.2201 45.6823 35.2169 61.1028 35.2341C62.2459 35.2354 63.3889 35.3571 64.6793 35.4314C64.6793 37.8208 64.6793 39.8954 64.5817 42.2619Z" fill="currentColor"/>
<path d="M117.34 114.766C120.938 116.799 120.142 119.96 119.832 123.81C115.299 120.281 111.164 117.182 107.163 113.885C105.698 112.678 105.754 108.772 107.261 107.496C111.222 104.144 115.319 100.986 119.528 97.619C120.849 103.363 120.666 103.982 117.069 106.815C115.543 108.017 114.004 109.196 112.043 110.718C114.038 112.243 115.578 113.421 117.34 114.766Z" fill="currentColor"/>
<path d="M244.04 121.727C243.12 121.205 242.49 120.627 241.785 120.466C240.702 120.22 239.567 120.261 238.292 120.168C238.443 117.376 239.737 116.218 241.508 115.694C243.297 115.165 245.142 114.873 247.173 114.286C256.602 116.006 261.752 122.744 264.484 132.304C264.802 133.418 264.852 134.629 264.958 136.11C264.538 135.943 263.975 135.515 263.868 134.973C262.148 126.234 257.14 120.642 250.192 116.926C248.483 116.012 248.134 116.385 246.967 119.804C249.087 121.393 251.21 123.034 253.378 124.597C257.191 127.347 259.62 135.048 258.041 141.071C257.757 139.909 257.702 138.594 257.607 137.284C257.066 129.807 253.449 124.771 247.041 122.596C246.142 122.291 245.212 122.101 244.04 121.727Z" fill="currentColor"/>
<path d="M182.123 108.162C181.945 108.729 181.582 109.405 181.192 109.425C180.671 109.453 180.071 109.062 179.604 108.694C177.352 106.917 175.448 107.639 173.666 109.605C173.336 109.969 172.934 110.25 172.327 110.714C167.352 108.145 163.666 104.061 160.563 99.2026C164.892 98.3609 164.892 98.3609 165.462 94.6429C167.287 96.466 169.142 98.2534 170.931 100.12C174.17 103.499 177.739 106.277 182.123 108.162Z" fill="currentColor"/>
<path d="M112.905 36.4326C111.789 36.6704 110.676 37.0928 109.558 37.1132C105.249 37.1916 100.939 37.1412 96.6289 37.1391C95.4826 37.1386 94.3364 37.1391 92.9468 37.1391C92.7661 38.4742 92.5143 39.475 92.5126 40.4763C92.489 55.076 92.495 69.6758 92.5061 84.2756C92.5073 85.8475 92.2954 87.5667 94.2663 88.6102C92.8941 90.1467 92.4456 91.7807 92.4618 93.9351C92.5384 104.091 92.4672 114.248 92.4487 124.405C92.3035 124.377 92.1584 124.35 91.7951 124.283C91.4937 111.235 91.3393 98.2273 91.3453 85.2192C91.3526 69.1555 91.4932 53.0918 91.9641 36.5696C94.0629 35.9707 95.7777 35.6665 97.4839 35.7204C102.626 35.883 107.765 36.185 112.905 36.4326Z" fill="currentColor"/>
<path d="M151.176 104.762C152.011 105.399 152.85 106.03 153.681 106.674C155.68 108.225 156.153 112.226 154.265 113.931C150.49 117.338 146.525 120.456 142.5 123.81C141.352 117.857 141.416 117.641 145.042 114.627C146.164 113.694 147.301 112.788 148.424 111.856C149.228 111.188 149.39 110.41 148.672 109.068C149.93 107.702 151.39 106.973 151.176 104.762Z" fill="currentColor"/>
<path d="M275.738 99.2807C277.085 96.572 279.181 95.3812 282.067 95.2381C284.699 98.0441 287.124 101.031 289.355 104.353C287.632 106.498 286.102 108.309 284.573 110.119C281.673 106.581 278.773 103.043 275.738 99.2807Z" fill="currentColor"/>
<path d="M284.816 110.64C286.186 108.448 287.684 106.637 289.42 104.762C290.056 105.437 290.452 106.175 290.935 107.33C291.233 108.104 291.446 108.46 291.658 108.816C291.777 108.895 291.897 108.974 292.219 109.157C292.423 109.26 292.386 109.26 292.386 109.26C292.644 109.972 292.902 110.683 293.182 111.805C293.24 112.374 293.313 112.508 293.422 112.615C293.869 113.421 294.317 114.227 294.769 115.556C294.945 116.312 295.116 116.545 295.287 116.777C295.318 116.935 295.349 117.092 295.333 117.561C295.286 117.872 295.363 118.154 295.363 118.154C295.618 118.501 295.873 118.848 296.163 119.538C295.253 119.448 294.308 119.017 293.269 118.542C290.937 119.779 291.102 122.28 290.943 125C290.432 124.16 289.956 122.953 289.465 121.237C289.298 120.495 289.146 120.263 288.993 120.03C288.993 120.03 288.847 119.733 288.809 119.373C288.691 118.761 288.551 118.563 288.351 118.419C288.119 117.879 287.886 117.339 287.545 116.543C287.438 116.286 287.48 116.371 287.48 116.371C287.354 116.081 287.228 115.791 286.923 115.075C286.744 114.649 286.722 114.74 286.722 114.74C286.606 114.449 286.49 114.158 286.2 113.446C286.027 113.026 286.03 113.125 286.03 113.125C285.668 112.424 285.305 111.723 284.816 110.64Z" fill="currentColor"/>
<path d="M96.4513 87.7183C96.7257 74.1429 96.9896 60.5673 97.3032 46.9927C97.3201 46.2609 97.7545 45.5378 98.3172 44.7041C98.6397 44.5975 98.7207 44.6623 98.7207 44.6623C98.7212 64.0774 98.7217 83.4925 98.6496 103.273C98.2981 103.641 98.0218 103.667 97.5172 103.359C97.2782 99.1614 97.335 95.3223 97.2252 91.4875C97.1891 90.2254 96.7216 88.9744 96.4513 87.7183Z" fill="currentColor"/>
<path d="M165.643 94.6155C165.094 98.2149 165.094 98.2149 160.666 98.7853C160.362 98.8523 160.4 98.7793 160.342 98.5734C160.045 98.205 159.807 98.0426 159.569 97.8802C157.981 95.5383 156.393 93.1963 154.89 90.3317C156.355 87.5077 158.454 86.9018 160.812 86.9047C162.135 88.9529 163.457 91.001 164.903 93.5286C165.24 94.2368 165.455 94.4656 165.67 94.6943C165.67 94.6943 165.618 94.6422 165.643 94.6155Z" fill="currentColor"/>
<path d="M160.563 86.2826C158.325 86.5769 156.277 87.2089 154.815 89.881C153.254 86.2581 151.81 82.3637 150.351 78.1402C152.903 77.5992 155.205 76.9476 155.942 73.2143C157.567 77.3301 159.035 81.6578 160.563 86.2826Z" fill="currentColor"/>
<path d="M150.874 104.745C151.192 107.12 149.741 107.831 148.345 108.929C147.049 108.281 145.963 107.303 144.755 106.6C141.572 104.746 141.54 101.702 142.146 97.619C145.238 100.096 148.004 102.311 150.874 104.745Z" fill="currentColor"/>
<path d="M113.293 36.3016C107.769 36.0049 102.573 35.6195 97.3746 35.4119C95.6496 35.3431 93.9158 35.7314 91.9126 36.0408C92.346 35.8043 93.053 35.1186 93.7597 35.119C104.205 35.124 114.651 35.2202 125.387 35.4165C123.397 35.7816 121.118 36.0932 118.835 36.2464C117.1 36.3628 115.358 36.2777 113.293 36.3016Z" fill="currentColor"/>
<path d="M26.9342 8.26927C26.6077 8.2171 26.5674 7.84218 26.8791 7.58814C31.6735 7.29378 36.1562 7.25343 40.9735 7.2422C47.2917 7.01668 53.2745 6.72573 59.2597 6.54848C60.1105 6.52326 60.973 7.05019 61.8302 7.32157C61.8302 7.32157 61.8344 7.73039 61.8425 7.93461C54.3983 8.20202 46.9462 8.27757 39.4939 8.3235C35.4162 8.34863 31.3384 8.32375 26.9342 8.26927Z" fill="currentColor"/>
<path d="M64.6622 189.881C64.2364 189.785 63.5886 189.337 63.5806 188.874C63.5136 184.992 63.5509 181.107 63.6043 177.224C63.6086 176.916 63.9692 176.613 64.4058 176.19C64.6773 180.556 64.7071 185.039 64.6622 189.881Z" fill="currentColor"/>
<path d="M257.604 143.452C258.752 144.596 257.807 145.726 257.326 146.86C256.158 149.612 254.995 152.398 251.909 153.571C254.022 150.593 256.443 147.65 257.604 143.452Z" fill="currentColor"/>
<path d="M131.92 35.2114C131.598 35.7186 131.281 35.926 130.591 36.2042C129.938 36.2865 129.659 36.298 129.38 36.3095C129.38 36.3095 129.348 36.0156 129.362 35.8684C131.055 35.5153 131.64 34.0442 132.193 32.1428C132.217 32.9347 132.071 33.9232 131.92 35.2114Z" fill="currentColor"/>
<path d="M64.674 173.214C63.1887 172.738 63.2331 171.627 64.4283 170.238C64.659 171.063 64.6955 171.972 64.674 173.214Z" fill="currentColor"/>
<path d="M203.683 35.119C202.952 35.4785 202 35.7105 200.846 35.7142C201.584 35.3211 202.523 35.1563 203.683 35.119Z" fill="currentColor"/>
<path d="M248.505 154.762C247.779 155.208 246.804 155.652 245.668 155.952C246.423 155.459 247.339 155.109 248.505 154.762Z" fill="currentColor"/>
<path d="M64.6633 89.881C64.2502 88.4236 64.0284 86.6021 64.141 84.5239C64.6018 86.017 64.7281 87.767 64.6633 89.881Z" fill="currentColor"/>
<path d="M2.83691 44.0476C3.41053 43.7845 4.1486 43.5832 5.10636 43.4524C4.55117 43.7184 3.77627 43.9139 2.83691 44.0476Z" fill="currentColor"/>
<path d="M51.0624 44.0274C51.615 43.5601 52.3051 43.4072 53.3318 43.4635C52.8455 43.8956 52.0227 44.1187 51.0624 44.0274Z" fill="currentColor"/>
<path d="M142.975 8.37868C144.12 8.16206 144.512 8.71903 143.621 10.1191C143.384 9.71494 143.268 9.15867 142.975 8.37868Z" fill="currentColor"/>
<path d="M262.122 151.786C262.175 151.116 262.364 150.325 262.689 149.405C262.636 150.072 262.446 150.868 262.122 151.786Z" fill="currentColor"/>
<path d="M56.1689 44.0476C56.4848 44.2273 56.9123 44.5855 57.3037 45.2381C56.9386 45.097 56.6096 44.6615 56.1689 44.0476Z" fill="currentColor"/>
<path d="M64.6663 55.3571C64.2521 54.6664 64.0391 53.6316 64.1343 52.3809C64.5841 53.1144 64.7259 54.0637 64.6663 55.3571Z" fill="currentColor"/>
<path d="M64.6633 67.8572C64.2479 67.3046 64.0318 66.4764 64.1391 65.4763C64.5959 66.0635 64.7293 66.8225 64.6633 67.8572Z" fill="currentColor"/>
<path d="M64.6632 74.4048C64.248 73.8524 64.0313 73.0241 64.1394 72.0239C64.5968 72.6109 64.7294 73.37 64.6632 74.4048Z" fill="currentColor"/>
<path d="M291.624 108.333C291.387 108.112 291.223 107.719 291.057 107.143C291.269 107.36 291.483 107.761 291.624 108.333Z" fill="currentColor"/>
<path d="M57.306 177.976C58.7831 178.368 58.7252 179.234 57.6503 180.357C57.3441 179.759 57.29 179.006 57.306 177.976Z" fill="currentColor"/>
<path d="M290.489 126.19C290.751 126.651 290.982 127.494 291.057 128.571C290.753 128.061 290.606 127.318 290.489 126.19Z" fill="currentColor"/>
<path d="M64.6705 131.548C64.2705 131.188 64.0311 130.554 64.1368 129.762C64.5984 130.161 64.7147 130.717 64.6705 131.548Z" fill="currentColor"/>
<path d="M263.304 148.809C263.169 148.417 263.32 147.819 263.775 147.024C263.915 147.419 263.752 148.011 263.304 148.809Z" fill="currentColor"/>
<path d="M264.747 145.238C264.309 145.116 264.272 144.917 264.652 144.643C265.029 144.761 265.055 144.959 264.747 145.238Z" fill="currentColor"/>
<path d="M259.285 155.952C259.31 155.781 259.497 155.581 259.852 155.357C259.828 155.53 259.638 155.727 259.285 155.952Z" fill="currentColor"/>
<path d="M64.6615 105.952C64.2438 105.771 64.0303 105.331 64.1407 104.762C64.5982 104.986 64.7319 105.34 64.6615 105.952Z" fill="currentColor"/>
<path d="M134.342 26.1905C134.611 26.483 134.42 26.8579 133.945 27.3809C133.832 27.1255 133.905 26.7068 134.342 26.1905Z" fill="currentColor"/>
<path d="M98.4723 44.6246C98.2799 44.6801 98.1949 44.5954 98.1537 44.5508C98.1768 44.3125 98.2411 44.1188 98.4071 43.6358C98.6831 43.3865 98.8575 43.4265 99.2884 43.5487C99.2516 43.9437 98.9581 44.2565 98.4723 44.6246Z" fill="currentColor"/>
<path d="M135.017 25C135.093 25.137 134.881 25.3271 134.473 25.5953C134.427 25.4666 134.578 25.2599 135.017 25Z" fill="currentColor"/>
<path d="M260.996 153.571C260.942 153.13 261.121 152.532 261.544 151.786C261.602 152.23 261.416 152.823 260.996 153.571Z" fill="currentColor"/>
<path d="M251.342 153.571C251.279 153.757 251.091 153.958 250.774 154.167C250.836 153.978 251.026 153.783 251.342 153.571Z" fill="currentColor"/>
<path d="M251.909 162.5C251.974 162.275 252.162 162.085 252.476 161.905C252.412 162.122 252.222 162.328 251.909 162.5Z" fill="currentColor"/>
<path d="M254.178 160.714C254.298 160.524 254.674 160.322 255.313 160.119C255.196 160.313 254.816 160.508 254.178 160.714Z" fill="currentColor"/>
<path d="M184.96 74.4127C185.106 74.3615 185.293 74.5573 185.527 74.9926C185.384 75.0412 185.193 74.8504 184.96 74.4127Z" fill="currentColor"/>
<path d="M253.614 161.31C253.585 161.133 253.776 160.943 254.176 160.714C254.201 160.882 254.017 161.089 253.614 161.31Z" fill="currentColor"/>
<path d="M256.459 158.929C256.399 158.769 256.578 158.568 257.003 158.333C257.066 158.495 256.882 158.691 256.459 158.929Z" fill="currentColor"/>
<path d="M257.038 158.333C256.949 158.178 257.119 157.976 257.559 157.738C257.652 157.897 257.474 158.092 257.038 158.333Z" fill="currentColor"/>
<path d="M257.603 157.738C257.52 157.58 257.688 157.375 258.127 157.143C258.217 157.308 258.035 157.499 257.603 157.738Z" fill="currentColor"/>
<path d="M250.207 154.167C250.206 154.345 250.017 154.542 249.639 154.762C249.64 154.585 249.83 154.385 250.207 154.167Z" fill="currentColor"/>
<path d="M260.453 154.167C260.34 154.047 260.513 153.852 260.954 153.571C261.062 153.687 260.901 153.889 260.453 154.167Z" fill="currentColor"/>
<path d="M288.788 120.238C288.982 120.239 289.158 120.441 289.355 120.833C289.173 120.829 288.971 120.634 288.788 120.238Z" fill="currentColor"/>
<path d="M288.22 118.465C288.489 118.398 288.658 118.599 288.787 119.047C288.61 119.053 288.4 118.865 288.22 118.465Z" fill="currentColor"/>
<path d="M295.029 116.071C294.843 116.078 294.667 115.877 294.461 115.476C294.634 115.472 294.836 115.667 295.029 116.071Z" fill="currentColor"/>
<path d="M165.67 94.6422C165.402 94.6553 165.033 94.4551 164.535 94.048C164.794 94.0371 165.181 94.233 165.67 94.6422Z" fill="currentColor"/>
<path d="M293.326 112.499C293.073 112.515 292.884 112.319 292.759 111.907C293.043 111.879 293.232 112.078 293.326 112.499Z" fill="currentColor"/>
<path d="M248.505 163.69C248.511 163.49 248.701 163.301 249.072 163.095C249.064 163.286 248.877 163.494 248.505 163.69Z" fill="currentColor"/>
<path d="M159.429 98.2279C159.548 98.1587 159.734 98.353 159.996 98.797C159.88 98.8616 159.688 98.6765 159.429 98.2279Z" fill="currentColor"/>
<path d="M40.488 7.0684C36.0107 7.10773 31.5334 7.14705 26.7238 7.25138C21.022 7.28585 15.6522 7.20399 10.2832 7.24485C7.26497 7.26782 6.8992 7.73612 6.87938 11.2711C6.83872 18.5317 6.82297 25.7929 6.8612 33.0535C6.87951 36.5294 7.24819 36.9414 10.3495 36.9726C16.4201 37.0336 22.4915 37.0056 28.8856 36.9864C30.4392 41.2181 30.0068 41.9466 26.1396 42.0069C23.7982 42.0434 21.4534 41.9386 19.1149 42.0419C14.4535 42.2479 9.79271 42.5052 5.13712 42.8417C3.21271 42.9808 1.97808 42.2057 1.30718 39.8097C1.12958 39.226 1.12504 38.8564 1.30673 37.949C1.58682 36.8922 1.76175 36.3732 1.76259 35.8539C1.77906 25.8142 1.791 15.7744 1.74759 5.73487C1.74381 4.85934 1.34814 3.98605 1.13452 3.11173C1.21066 1.3558 2.38686 0.96746 3.53581 0.727553C4.44244 0.538248 5.3941 0.607451 6.32573 0.608651C19.6163 0.625705 32.9068 0.65074 46.5235 0.983375C46.3893 3.98032 45.0335 5.37222 42.6006 5.59756C41.8669 5.66553 41.1906 6.55516 40.488 7.0684Z" fill="currentColor"/>
<path d="M76.5399 1.22214C90.3638 1.21715 104.188 1.14268 118.011 1.24138C123.542 1.28086 129.07 1.70043 134.599 1.94999C136.887 2.05325 138.566 3.12032 139.571 5.34072C138.598 6.99807 137.167 6.44878 135.968 6.45593C127.461 6.5067 118.912 5.92242 110.457 6.63167C98.8852 7.60236 87.3355 6.88348 75.4591 6.93188C75.6037 4.83363 76.0718 3.02788 76.5399 1.22214Z" fill="currentColor"/>
<path d="M76.5938 1.19054C76.4582 2.97534 75.9876 4.75316 75.5085 6.80966C71.2035 7.10364 66.9071 7.11895 62.276 7.1429C61.0744 6.90881 60.2022 6.43752 59.3418 6.46008C53.2893 6.61861 47.2393 6.87884 40.85 7.08054C41.2229 6.58346 41.9077 5.76698 42.6505 5.70461C45.1137 5.4978 46.4864 4.22036 46.9552 1.47856C56.7249 1.19664 66.4919 1.19009 76.5938 1.19054Z" fill="currentColor"/>
<path d="M1.1355 3.57138C1.33716 4.06581 1.67322 4.93256 1.67643 5.80154C1.7133 15.7659 1.70315 25.7307 1.68917 35.6953C1.68846 36.2107 1.53988 36.7258 1.30949 37.4999C1.1443 26.4875 1.12979 15.2161 1.1355 3.57138Z" fill="currentColor"/>
<path d="M252.934 35.7782C253.473 36.8377 253.998 37.6329 254.119 38.5056C254.526 41.4622 252.81 43.9156 250.382 44.0423C248.059 44.1635 246.318 42.2163 246.238 39.4074C246.155 36.5032 248.065 34.2777 250.562 34.5457C251.306 34.6255 252.012 35.201 252.934 35.7782Z" fill="#000000"/>
<path d="M96.6092 87.5001C97.0691 88.7416 97.4647 90.0042 97.4952 91.2781C97.5881 95.1486 97.5401 99.0234 97.5671 103.284C97.5759 114.415 97.626 125.159 97.5191 135.902C97.4819 139.635 97.0924 143.366 96.79 147.091C96.6615 148.674 96.0041 150.118 94.4122 149.992C92.7817 149.863 92.4927 148.351 92.4975 146.716C92.5184 139.599 92.4952 132.481 92.4802 124.994C92.4912 114.385 92.5636 104.144 92.4857 93.9052C92.4692 91.733 92.9256 90.0856 94.597 88.6064C95.2363 88.0573 95.8072 87.7918 96.6092 87.5001Z" fill="currentColor"/>
<path d="M98.7209 161.92C98.0683 163.059 97.6245 164.148 96.8922 164.721C95.0003 166.202 92.3953 165.403 91.3089 163.213C90.2059 160.99 90.8818 157.948 92.7734 156.621C94.6936 155.274 97.1434 156.002 98.2533 158.452C98.667 159.366 98.6299 160.565 98.7209 161.92Z" fill="#000000"/>
<path d="M163.824 164.723C161.589 163.452 160.756 161.691 161.285 159.368C161.762 157.274 163.764 155.82 165.739 155.962C167.566 156.093 169.184 157.664 169.561 159.672C169.953 161.765 168.889 164.023 166.945 164.719C166.077 165.029 165.04 164.815 163.824 164.723Z" fill="#000000"/>
</svg>